<?xml version="1.0" encoding="utf-8"?>
<!-- Generator: Adobe Illustrator 25.2.3, SVG Export Plug-In . SVG Version: 6.00 Build 0)  -->
<svg version="1.1" id="Layer_1" xmlns="http://www.w3.org/2000/svg" xmlns:xlink="http://www.w3.org/1999/xlink" x="0px" y="0px"
	 viewBox="0 0 273.3 30" style="enable-background:new 0 0 273.3 30;" xml:space="preserve">
<style type="text/css">
	.st0{fill:#2C2C2C;}
	.st1{fill:#039B8E;}
	.st2{fill-rule:evenodd;clip-rule:evenodd;fill:url(#e28edbab-0210-4047-974d-19468f3a9599_1_);}
	.st3{fill-rule:evenodd;clip-rule:evenodd;fill:url(#f23074c0-2f08-4eb4-9f15-b3226edc87f4_1_);}
	.st4{fill-rule:evenodd;clip-rule:evenodd;fill:#FFFFFF;}
	.st5{fill-rule:evenodd;clip-rule:evenodd;fill:url(#SVGID_1_);}
</style>
<g id="Layer_2_1_">
	<g id="afad0bc9-c5ca-41c1-8caf-fa4845787c00">
		<path class="st0" d="M62.3,22.9V5.8h2.1v7.5h9V5.8h2.1v17.1h-2.1v-7.6h-9v7.6H62.3z"/>
		<path class="st0" d="M79.3,7.8V5.7h2.1v2.2H79.3z M79.3,22.9V10.1h2.1v12.8H79.3z"/>
		<path class="st0" d="M90.2,23.3c-1.1,0-2.2-0.3-3.1-0.9c-0.9-0.6-1.6-1.4-2-2.4c-0.5-1.1-0.7-2.3-0.7-3.5c0-1.2,0.2-2.4,0.7-3.4
			c0.4-1,1.1-1.8,2-2.4c0.9-0.6,2-0.9,3.1-0.9c1.1,0,2.1,0.3,3,0.9c0.8,0.6,1.5,1.4,1.9,2.4c0.4,1.1,0.6,2.3,0.6,3.5
			c0,1.2-0.2,2.4-0.6,3.5c-0.4,1-1,1.8-1.9,2.4C92.4,23,91.3,23.3,90.2,23.3z M90.4,29c-0.7,0-1.4-0.1-2-0.3
			c-0.6-0.2-1.2-0.5-1.8-0.9c-0.5-0.4-1-1-1.3-1.6l1.9-1c0.3,0.6,0.8,1.1,1.3,1.4c0.6,0.3,1.2,0.4,1.8,0.4c0.7,0,1.4-0.1,2-0.5
			c0.5-0.3,1-0.8,1.2-1.3c0.3-0.7,0.5-1.4,0.4-2.2v-3.5h0.2v-9.4h1.9V23c0,0.4,0,0.7,0,1c0,0.3-0.1,0.7-0.1,1
			c-0.1,0.8-0.5,1.6-1,2.2c-0.5,0.6-1.2,1.1-1.9,1.3C92.2,28.9,91.3,29,90.4,29L90.4,29z M90.5,21.3c0.8,0,1.5-0.2,2.1-0.6
			c0.6-0.4,1-1,1.2-1.7c0.3-0.8,0.4-1.6,0.4-2.5c0-0.9-0.1-1.7-0.4-2.5c-0.2-0.7-0.7-1.3-1.2-1.7c-0.6-0.4-1.3-0.6-2.1-0.6
			c-0.8,0-1.5,0.2-2.2,0.6c-0.6,0.4-1,1-1.3,1.7c-0.3,0.8-0.4,1.6-0.4,2.4c0,0.9,0.1,1.7,0.4,2.5c0.2,0.7,0.7,1.3,1.2,1.7
			C89,21.2,89.7,21.4,90.5,21.3z"/>
		<path class="st0" d="M99.7,22.9V5.8h1.9v9.4h0.2v7.7H99.7z M108.8,22.9v-6.4c0-0.6-0.1-1.2-0.2-1.7c-0.1-0.5-0.3-1-0.6-1.5
			c-0.3-0.4-0.6-0.8-1.1-1.1c-0.5-0.3-1.1-0.4-1.7-0.4c-0.5,0-1,0.1-1.4,0.3c-0.4,0.2-0.8,0.5-1.1,0.8c-0.3,0.4-0.6,0.9-0.7,1.4
			c-0.2,0.6-0.3,1.3-0.2,1.9l-1.4-0.4c0-1.1,0.2-2.2,0.7-3.2c0.4-0.9,1.1-1.6,1.9-2.1c0.9-0.5,1.9-0.7,2.9-0.7
			c0.7,0,1.5,0.1,2.1,0.4c0.6,0.2,1,0.6,1.4,1.1c0.4,0.4,0.7,0.9,0.9,1.4c0.2,0.5,0.4,1.1,0.5,1.6c0.1,0.5,0.1,1,0.1,1.6v7.1H108.8z
			"/>
		<path class="st0" d="M120.3,23.3c-1.1,0-2.2-0.2-3.3-0.6c-0.9-0.4-1.8-1-2.4-1.8c-0.6-0.8-1.1-1.7-1.2-2.7l2.2-0.3
			c0.2,1,0.9,1.9,1.7,2.5c0.9,0.6,2,0.9,3.1,0.9c0.7,0,1.4-0.1,2.1-0.4c0.6-0.2,1.1-0.5,1.5-1c0.4-0.5,0.6-1,0.6-1.6
			c0-0.3-0.1-0.7-0.2-1c-0.1-0.3-0.3-0.5-0.5-0.7c-0.2-0.2-0.5-0.4-0.8-0.5c-0.3-0.1-0.6-0.3-0.9-0.4l-4.3-1.3
			c-0.5-0.1-0.9-0.3-1.4-0.5c-0.4-0.2-0.8-0.5-1.2-0.8c-0.4-0.3-0.6-0.7-0.8-1.2c-0.2-0.5-0.3-1.1-0.3-1.6c0-0.9,0.3-1.8,0.8-2.6
			c0.5-0.7,1.3-1.3,2.1-1.7c1-0.4,2-0.6,3-0.6c1.1,0,2.1,0.2,3.1,0.6c0.9,0.4,1.7,1,2.2,1.7c0.6,0.8,1,1.7,1.2,2.7l-2.2,0.4
			c-0.1-0.7-0.4-1.3-0.8-1.8c-0.4-0.5-0.9-0.9-1.5-1.2c-1.2-0.5-2.6-0.6-3.9-0.1c-0.5,0.2-1,0.6-1.3,1c-0.3,0.4-0.5,0.9-0.5,1.4
			c0,0.5,0.1,0.9,0.4,1.3c0.3,0.3,0.7,0.6,1.1,0.8c0.4,0.2,0.9,0.3,1.3,0.5l3.2,0.9c0.4,0.1,0.8,0.2,1.3,0.4c0.5,0.2,1,0.5,1.4,0.8
			c0.5,0.3,0.9,0.8,1.1,1.3c0.3,0.6,0.5,1.3,0.4,2c0.1,1.5-0.6,2.9-1.8,3.8c-0.6,0.4-1.3,0.8-2,1C122,23.2,121.2,23.3,120.3,23.3z"
			/>
		<path class="st0" d="M129.4,28.6V10.1h1.9v9.4h0.2v9.1L129.4,28.6z M135.3,23.3c-1.1,0-2.1-0.3-3-0.9c-0.8-0.6-1.5-1.4-1.9-2.4
			c-0.4-1.1-0.7-2.3-0.6-3.5c0-1.2,0.2-2.4,0.6-3.5c0.4-1,1-1.8,1.9-2.4c0.9-0.6,2-0.9,3.1-0.9c1.1,0,2.2,0.3,3.1,0.9
			c0.9,0.6,1.6,1.4,2,2.4c0.5,1.1,0.7,2.3,0.7,3.4c0,1.2-0.2,2.4-0.7,3.5c-0.4,1-1.1,1.8-2,2.4C137.5,23,136.4,23.3,135.3,23.3
			L135.3,23.3z M135.1,21.4c0.8,0,1.5-0.2,2.1-0.6c0.6-0.4,1-1,1.3-1.7c0.3-0.8,0.4-1.6,0.4-2.5c0-0.8-0.1-1.7-0.4-2.4
			c-0.2-0.7-0.7-1.3-1.3-1.7c-0.6-0.4-1.4-0.7-2.1-0.6c-0.7,0-1.5,0.2-2.1,0.6c-0.6,0.4-1,1-1.2,1.7c-0.3,0.8-0.4,1.6-0.4,2.5
			c0,0.8,0.1,1.7,0.4,2.5c0.2,0.7,0.7,1.3,1.2,1.7C133.6,21.2,134.3,21.4,135.1,21.4L135.1,21.4z"/>
		<path class="st0" d="M149.5,23.3c-1.2,0-2.3-0.3-3.3-0.8c-0.9-0.6-1.7-1.4-2.2-2.3c-0.5-1.1-0.8-2.3-0.8-3.5
			c0-1.2,0.3-2.5,0.8-3.6c0.5-1,1.2-1.8,2.2-2.4c1-0.6,2.1-0.9,3.2-0.8c1.2,0,2.3,0.3,3.3,0.9c0.9,0.6,1.6,1.5,2,2.5
			c0.5,1.3,0.7,2.6,0.6,3.9h-2.1v-0.8c0.1-1.3-0.3-2.5-1-3.5c-0.7-0.8-1.7-1.2-2.8-1.2c-1.1-0.1-2.3,0.4-3,1.2
			c-0.7,1.1-1.1,2.3-1,3.6c-0.1,1.3,0.3,2.5,1,3.5c0.7,0.8,1.8,1.3,2.9,1.2c1.6,0.1,3.1-0.8,3.8-2.3l2,0.7c-0.5,1.1-1.2,2-2.2,2.6
			C151.8,22.9,150.6,23.3,149.5,23.3z M144.7,17.1v-1.7h9.5v1.7H144.7z"/>
		<path class="st0" d="M163.7,23.3c-1.2,0-2.3-0.3-3.3-0.8c-0.9-0.6-1.7-1.4-2.2-2.3c-0.5-1.1-0.8-2.3-0.8-3.5
			c0-1.3,0.2-2.5,0.8-3.6c0.5-1,1.2-1.8,2.2-2.4c1-0.6,2.1-0.9,3.2-0.8c1.2,0,2.3,0.3,3.3,0.9c0.9,0.6,1.6,1.5,2,2.5
			c0.5,1.3,0.7,2.6,0.6,3.9h-2.1v-0.8c0.1-1.3-0.3-2.5-1-3.5c-0.7-0.8-1.7-1.2-2.8-1.2c-1.1-0.1-2.3,0.4-3,1.2
			c-0.7,1.1-1.1,2.3-1,3.6c-0.1,1.3,0.3,2.5,1,3.5c0.7,0.9,1.8,1.3,2.9,1.2c1.6,0.1,3.1-0.8,3.8-2.3l2,0.7c-0.5,1.1-1.2,2-2.2,2.6
			C166.1,22.9,164.9,23.3,163.7,23.3z M159,17.1v-1.7h9.5v1.7H159z"/>
		<path class="st0" d="M177.4,23.3c-1.1,0-2.2-0.3-3.1-0.9c-0.9-0.6-1.6-1.4-2-2.4c-0.5-1.1-0.7-2.3-0.7-3.5c0-1.2,0.2-2.4,0.7-3.4
			c0.4-1,1.1-1.8,2-2.4c0.9-0.6,2-0.9,3.1-0.9c1.1,0,2.1,0.3,3,0.9c0.8,0.6,1.5,1.4,1.9,2.4c0.4,1.1,0.6,2.3,0.6,3.5
			c0,1.2-0.2,2.4-0.6,3.5c-0.4,1-1,1.8-1.9,2.4C179.6,23,178.5,23.3,177.4,23.3z M177.7,21.4c0.8,0,1.5-0.2,2.1-0.6
			c0.6-0.4,1-1,1.2-1.7c0.3-0.8,0.4-1.7,0.4-2.5c0-0.9-0.1-1.7-0.4-2.5c-0.2-0.7-0.7-1.3-1.2-1.7c-0.6-0.4-1.3-0.6-2.1-0.6
			c-0.8,0-1.5,0.2-2.1,0.6c-0.6,0.5-1,1.1-1.3,1.7c-0.3,0.8-0.4,1.6-0.4,2.4c0,0.8,0.1,1.7,0.4,2.5c0.2,0.7,0.7,1.3,1.2,1.7
			C176.2,21.1,176.9,21.4,177.7,21.4z M181.4,22.9v-9.4h-0.2V5.8h2.1v17.1H181.4z"/>
		<path class="st1" d="M193.9,23.3c-1.5,0-3-0.3-4.3-1.1c-1.2-0.8-2.1-1.9-2.7-3.2c-0.6-1.5-1-3-0.9-4.6c0-1.6,0.3-3.2,0.9-4.6
			c0.6-1.3,1.5-2.4,2.7-3.1c2.7-1.5,6-1.5,8.7,0c1.2,0.8,2.2,1.9,2.7,3.2c0.6,1.5,1,3,0.9,4.6c0,1.6-0.3,3.2-0.9,4.6
			c-0.6,1.3-1.5,2.4-2.7,3.1C197,22.9,195.5,23.3,193.9,23.3z M193.9,21.3c1.1,0.1,2.2-0.2,3.2-0.9c0.9-0.6,1.5-1.4,1.9-2.4
			c0.4-1.1,0.7-2.4,0.6-3.6c0-1.2-0.2-2.5-0.6-3.6c-0.4-1-1-1.8-1.9-2.4c-0.9-0.6-2.1-0.9-3.2-0.9c-1.1,0-2.2,0.3-3.2,0.9
			c-0.9,0.6-1.5,1.5-1.9,2.4c-0.4,1.1-0.7,2.4-0.6,3.6c0,1.2,0.2,2.4,0.6,3.6c0.4,1,1.1,1.8,1.9,2.4C191.7,21,192.8,21.3,193.9,21.3
			L193.9,21.3z"/>
		<path class="st1" d="M204.5,28.6V10.1h1.9v9.4h0.2v9.1L204.5,28.6z M210.4,23.3c-1.1,0-2.1-0.3-3-0.9c-0.8-0.6-1.5-1.4-1.9-2.4
			c-0.4-1.1-0.6-2.3-0.6-3.5c0-1.2,0.2-2.4,0.6-3.5c0.4-1,1-1.8,1.9-2.4c0.9-0.6,1.9-0.9,3-0.9c1.1,0,2.2,0.3,3.1,0.9
			c0.9,0.6,1.6,1.4,2,2.4c0.5,1.1,0.7,2.3,0.7,3.4c0,1.2-0.2,2.4-0.7,3.5c-0.4,1-1.1,1.8-2,2.4C212.5,23,211.5,23.3,210.4,23.3z
			 M210.1,21.4c0.7,0,1.5-0.2,2.1-0.6c0.6-0.4,1-1,1.3-1.7c0.3-0.8,0.4-1.6,0.4-2.5c0-0.8-0.1-1.7-0.4-2.4c-0.2-0.7-0.7-1.3-1.3-1.7
			c-0.6-0.4-1.4-0.7-2.1-0.6c-0.7,0-1.5,0.2-2.1,0.6c-0.6,0.4-1,1-1.2,1.7c-0.3,0.8-0.4,1.6-0.4,2.5c0,0.9,0.1,1.7,0.4,2.5
			c0.2,0.7,0.6,1.3,1.2,1.7C208.6,21.2,209.4,21.4,210.1,21.4z"/>
		<path class="st1" d="M217.4,11.9v-1.7h8.6v1.7H217.4z M226,22.9c-0.7,0.2-1.5,0.2-2.2,0.2c-0.7,0-1.4-0.2-2-0.5
			c-0.6-0.3-1-0.7-1.3-1.3c-0.2-0.5-0.4-1-0.4-1.5c0-0.5,0-1.1,0-1.8V6.6h2.1V18c0,0.5,0,1,0,1.3c0,0.3,0.1,0.7,0.2,1
			c0.3,0.5,0.8,0.8,1.4,0.9c0.7,0.1,1.5,0.1,2.2-0.1L226,22.9z"/>
		<path class="st1" d="M228.9,7.8V5.7h2.1v2.2H228.9z M228.9,22.9V10.1h2.1v12.8H228.9z"/>
		<path class="st1" d="M240.1,23.3c-1.2,0-2.3-0.3-3.3-0.9c-0.9-0.6-1.7-1.4-2.1-2.4c-0.5-1.1-0.8-2.3-0.7-3.5
			c0-1.2,0.2-2.4,0.8-3.5c0.5-1,1.2-1.8,2.1-2.4c2-1.1,4.5-1.1,6.6,0c0.9,0.6,1.7,1.4,2.1,2.4c0.5,1.1,0.8,2.3,0.7,3.5
			c0,1.2-0.2,2.4-0.8,3.5c-0.5,1-1.2,1.8-2.1,2.4C242.4,23,241.2,23.3,240.1,23.3z M240.1,21.3c1.2,0.1,2.3-0.4,3-1.3
			c0.7-1,1-2.2,1-3.4c0.1-1.2-0.3-2.4-1-3.4c-0.7-0.9-1.8-1.4-2.9-1.3c-0.8,0-1.6,0.2-2.2,0.6c-0.6,0.4-1.1,1-1.3,1.6
			c-0.3,0.8-0.4,1.6-0.4,2.5c-0.1,1.2,0.3,2.5,1,3.5C237.9,20.8,239,21.3,240.1,21.3z"/>
		<path class="st1" d="M248.9,22.9V10.1h1.9v3.4h0.2v9.4H248.9z M258.1,22.9v-6.4c0-0.6-0.1-1.2-0.2-1.7c-0.1-0.5-0.3-1-0.6-1.5
			c-0.3-0.4-0.6-0.8-1.1-1.1c-0.5-0.3-1.1-0.4-1.7-0.4c-0.5,0-1,0.1-1.4,0.3c-0.4,0.2-0.8,0.5-1.1,0.8c-0.3,0.4-0.6,0.9-0.7,1.4
			c-0.2,0.6-0.3,1.3-0.3,1.9l-1.4-0.4c0-1.1,0.2-2.2,0.7-3.2c0.4-0.9,1.1-1.6,1.9-2.1c0.9-0.5,1.9-0.7,2.9-0.7
			c0.7,0,1.4,0.1,2.1,0.4c0.6,0.2,1.1,0.6,1.5,1.1c0.4,0.4,0.7,0.9,0.9,1.4c0.2,0.5,0.4,1.1,0.5,1.6c0.1,0.5,0.1,1,0.1,1.6v7.1
			H258.1z"/>
		<path class="st1" d="M268.2,23.3c-1.3,0.1-2.6-0.3-3.8-1c-1-0.6-1.6-1.7-1.8-2.8l2.2-0.3c0.2,0.7,0.6,1.3,1.2,1.7
			c0.7,0.4,1.5,0.6,2.3,0.6c0.7,0,1.4-0.2,2-0.5c0.5-0.3,0.8-0.9,0.8-1.5c0-0.3-0.1-0.6-0.2-0.9c-0.3-0.3-0.6-0.5-1-0.6
			c-0.5-0.2-1.3-0.4-2.3-0.7c-0.9-0.2-1.8-0.5-2.7-0.9c-0.6-0.2-1-0.6-1.4-1.1c-0.3-0.5-0.4-1-0.4-1.6c0-0.7,0.2-1.4,0.6-2
			c0.4-0.6,1-1,1.7-1.3c0.8-0.3,1.7-0.5,2.6-0.4c0.9,0,1.8,0.1,2.6,0.5c0.7,0.3,1.4,0.7,1.9,1.3c0.5,0.6,0.8,1.3,0.8,2l-2.2,0.4
			c-0.1-0.7-0.5-1.2-1-1.6c-0.6-0.4-1.4-0.6-2.1-0.6c-0.7-0.1-1.4,0.1-2,0.4c-0.5,0.3-0.8,0.8-0.8,1.3c0,0.3,0.1,0.6,0.3,0.8
			c0.3,0.3,0.7,0.5,1.1,0.6c0.5,0.2,1.3,0.4,2.3,0.7c0.9,0.2,1.8,0.5,2.7,0.9c0.6,0.3,1,0.7,1.4,1.2c0.3,0.5,0.4,1.1,0.4,1.7
			c0,1.1-0.5,2.2-1.4,2.9C270.9,23,269.6,23.4,268.2,23.3z"/>
	</g>
</g>
<g id="b6572405-eb91-464a-a0a9-51cd231c568c">
	
		<linearGradient id="e28edbab-0210-4047-974d-19468f3a9599_1_" gradientUnits="userSpaceOnUse" x1="-1726.0273" y1="1689.4957" x2="-1731.4774" y2="1689.6357" gradientTransform="matrix(8.28 0 0 4.43 14341.6104 -7474.0898)">
		<stop  offset="0" style="stop-color:#02A093"/>
		<stop  offset="1" style="stop-color:#41C798"/>
	</linearGradient>
	<path id="e28edbab-0210-4047-974d-19468f3a9599" class="st2" d="M4,8.8c-2.8,0-2.8,4.4,0,4.4h4.1c2.8,0,2.8-4.4,0-4.4L4,8.8z"/>
	
		<linearGradient id="f23074c0-2f08-4eb4-9f15-b3226edc87f4_1_" gradientUnits="userSpaceOnUse" x1="-1908.2861" y1="1117.1682" x2="-1909.2861" y2="1117.1682" gradientTransform="matrix(54.17 0 0 30.09 103422.8906 -33600.6289)">
		<stop  offset="0" style="stop-color:#039B8E"/>
		<stop  offset="1" style="stop-color:#44D1A0"/>
	</linearGradient>
	<path id="f23074c0-2f08-4eb4-9f15-b3226edc87f4" class="st3" d="M39.6,0.1H2.3c-2.7,0.1-2.7,4.3,0.1,4.3h19.8c2.8,0,2.8,4.3,0,4.3
		h-8.4c-1.9,0.6-1.9,3.6,0,4.1h8.4c2.8,0,2.8,4.3,0,4.3H6.1c-2.8,0-2.8,4.3,0,4.3h16.2c2.8,0,2.8,4.3,0,4.3h-4.6
		c-2.8,0-2.8,4.3,0,4.3h22.4C48.3,29.9,55,23,54.9,14.8S47.9-0.1,39.7,0h-0.1V0.1z"/>
	<path id="af79ccb7-975a-4a60-b617-07a3a403ce95" class="st4" d="M39.6,8.2c-3.8,0-6.8,3-6.8,6.8c0,3.8,3,6.8,6.8,6.8
		c3.7-0.1,6.7-3.1,6.6-6.8c0,0,0,0,0,0l0,0C46.2,11.3,43.3,8.2,39.6,8.2C39.6,8.2,39.6,8.2,39.6,8.2L39.6,8.2 M39.6,24.3
		c-5.1,0-9.2-4.2-9.2-9.3c0,0,0,0,0,0l0,0c0-5.1,4.1-9.2,9.2-9.2s9.2,4.1,9.2,9.2l0,0C48.8,20,44.7,24.2,39.6,24.3"/>
	<linearGradient id="SVGID_1_" gradientUnits="userSpaceOnUse" x1="51.1723" y1="27.7294" x2="9.9821" y2="27.7294">
		<stop  offset="0" style="stop-color:#02A093"/>
		<stop  offset="1" style="stop-color:#41C798"/>
	</linearGradient>
	<circle class="st5" cx="11" cy="27.7" r="2.3"/>
</g>
</svg>
